<?xml version="1.0" encoding="utf-8"?>
<!-- Generator: Adobe Illustrator 18.0.0, SVG Export Plug-In . SVG Version: 6.00 Build 0)  -->
<!DOCTYPE svg PUBLIC "-//W3C//DTD SVG 1.1//EN" "http://www.w3.org/Graphics/SVG/1.1/DTD/svg11.dtd">
<svg version="1.1" id="Layer_1" xmlns="http://www.w3.org/2000/svg" xmlns:xlink="http://www.w3.org/1999/xlink" x="0px" y="0px"
	 viewBox="0 0 1190.6 841.9" enable-background="new 0 0 1190.6 841.9" xml:space="preserve">
<g>
	<polygon points="621.6,739.3 621.6,420.9 569,420.9 569,734.1 483.5,640.6 444,674.8 594,840.6 745.2,689.3 708.4,652.5 	"/>
	<path d="M858.4,223.6c0-1.3,0-3.9,0-6.6c0-119.7-97.3-217-217-217C565,0,492.7,42.1,454.5,107.9c-7.9-1.3-15.8-2.6-23.7-2.6
		c-72.3,0-131.5,55.2-138.1,126.3c-69.7,22.4-118.4,88.1-118.4,163.1c0,94.7,76.3,171,171,171h118.4V513H345.3
		c-65.8,0-118.4-52.6-118.4-118.4c0-56.6,40.8-106.6,96-117.1l23.7-3.9l-1.3-23.7c0-1.3,0-3.9,0-6.6c0-47.4,38.1-85.5,85.5-85.5
		c10.5,0,19.7,2.6,28.9,5.3l22.4,7.9l9.2-22.4c27.6-57.9,85.5-96,150-96c90.8,0,164.4,73.7,164.4,164.4c0,9.2-1.3,18.4-2.6,28.9
		l-5.3,30.3h47.4c65.8,0,118.4,52.6,118.4,118.4S911,513,845.2,513H726.8v52.6h118.4c94.7,0,171-76.3,171-171
		C1016.2,303.9,946.5,230.2,858.4,223.6z"/>
</g>
</svg>
